<?xml version="1.0" encoding="UTF-8" standalone="no"?>
<!-- Created with Inkscape (http://www.inkscape.org/) -->

<svg
   version="1.1"
   id="svg9"
   width="990.71997"
   height="1088.64"
   viewBox="0 0 990.71997 1088.64"
   sodipodi:docname="MainCordsTrasnparent.svg"
   inkscape:version="1.1.2 (b8e25be833, 2022-02-05)"
   xmlns:inkscape="http://www.inkscape.org/namespaces/inkscape"
   xmlns:sodipodi="http://sodipodi.sourceforge.net/DTD/sodipodi-0.dtd"
   xmlns="http://www.w3.org/2000/svg"
   xmlns:svg="http://www.w3.org/2000/svg">
  <defs
     id="defs13" />
  <sodipodi:namedview
     id="namedview11"
     pagecolor="#ffffff"
     bordercolor="#666666"
     borderopacity="1.0"
     inkscape:pageshadow="2"
     inkscape:pageopacity="0.0"
     inkscape:pagecheckerboard="true"
     showgrid="false"
     inkscape:zoom="0.37110523"
     inkscape:cx="1054.9568"
     inkscape:cy="538.9307"
     inkscape:window-width="1920"
     inkscape:window-height="1017"
     inkscape:window-x="-8"
     inkscape:window-y="-8"
     inkscape:window-maximized="1"
     inkscape:current-layer="g15" />
  <g
     inkscape:groupmode="layer"
     inkscape:label="Image"
     id="g15">
    <g
       id="g135"
       transform="translate(7.384826,-6.5451303)">
      <path
         style="fill:#fefefe;stroke-width:0.96"
         d="m 24.454067,1079.6649 c 0.302911,-0.4901 13.091082,-15.2861 28.418157,-32.88 l 27.867411,-31.9889 -3.607543,-3.1598 c -3.29828,-2.8889 -3.497041,-3.3368 -2.318553,-5.2238 0.708944,-1.1352 11.073392,-14.18529 23.032108,-29.0002 11.958713,-14.81491 22.525373,-28.16693 23.481463,-29.67121 5.59552,-8.80381 6.86887,-21.70166 3.37262,-34.16154 -2.97576,-10.605 -2.27929,-23.32023 1.74462,-31.85099 2.69602,-5.71562 20.15066,-29.53434 26.22923,-35.79263 l 2.70038,-2.7802 10.88134,9.34673 c 13.93229,11.9674 16.6467,13.39171 24.34421,12.77382 10.72374,-0.8608 17.66096,-7.89675 17.92763,-18.18277 0.16869,-6.50683 -2.02991,-11.17682 -7.72559,-16.40972 -8.69955,-7.99269 -10.44781,-10.17232 -11.46684,-14.29604 -1.0344,-4.18595 -0.47459,-9.36357 1.56043,-14.4324 2.40562,-5.99195 14.0316,-10.0303 21.64372,-7.51807 1.92862,0.63649 5.76809,3.10077 8.53217,5.47617 6.06153,5.20916 9.53973,7.13263 14.6256,8.08809 12.32124,2.31472 24.01486,-9.11747 22.1367,-21.64185 -0.80996,-5.40126 -3.89729,-10.06309 -10.1367,-15.30631 -6.63796,-5.57814 -9.6,-10.8501 -9.6,-17.08648 0,-11.35102 9.381,-19.36764 20.50811,-17.52539 5.12632,0.84874 6.70948,1.71791 13.09189,7.18762 6.2968,5.39637 7.88307,6.25925 13.09188,7.12164 8.18186,1.35462 16.91831,-2.99803 20.63319,-10.2798 1.63431,-3.20352 1.93517,-5.1224 1.55186,-9.89767 -0.62592,-7.79769 -2.51165,-10.40639 -15.83693,-21.90879 -5.94,-5.1274 -10.8,-9.76753 -10.8,-10.31138 0,-0.54385 2.85481,-4.26215 6.34404,-8.26287 14.58443,-16.72244 24.83684,-33.55966 32.30538,-53.05412 3.94964,-10.30939 5.11526,-14.44288 10.42242,-36.96 3.45281,-14.64948 10.58804,-30.50475 19.11952,-42.4857 4.37863,-6.14901 237.98245,-277.6743 238.89405,-277.6743 0.35584,0 41.60295,35.25503 91.66025,78.34451 l 91.01328,78.34451 -2.34942,2.53549 c -1.29218,1.39452 -53.22361,61.71949 -115.40316,134.05549 -62.17956,72.336 -115.91408,134.45999 -119.41006,138.05332 -12.8631,13.22129 -28.71164,23.38734 -47.23876,30.30128 -13.55116,5.05703 -19.77724,7.90559 -30.06614,13.75583 -16.82773,9.56823 -34.33697,24.22058 -46.65141,39.03957 -3.96,4.7654 -7.41751,8.68813 -7.68338,8.71718 -0.26585,0.0291 -5.23385,-4.0745 -11.04,-9.11899 -5.80613,-5.0445 -12.06862,-9.96541 -13.91662,-10.93535 -9.76149,-5.12344 -22.49782,-0.87566 -26.9829,8.99925 -4.00044,8.80786 -0.91777,18.08465 8.63173,25.97574 6.82358,5.63856 8.6574,8.53664 9.40707,14.86643 1.53989,13.00191 -9.78989,22.71174 -22.50563,19.28775 -2.17427,-0.58548 -6.46356,-3.15402 -9.53174,-5.70788 -3.06819,-2.55385 -6.87453,-5.29455 -8.45853,-6.09045 -13.35697,-6.71131 -28.32,2.099 -28.32,16.67498 0,6.97497 2.77159,12.12931 9.53964,17.74093 7.48812,6.20866 10.10631,10.81482 10.027,17.64041 -0.0981,8.4399 -3.9995,14.01726 -11.70759,16.73683 -3.70109,1.30582 -5.8259,1.30469 -12.37208,-0.007 -1.16217,-0.23279 -4.93053,-2.81352 -8.37414,-5.73493 -7.14427,-6.06078 -11.37156,-8.11518 -16.69874,-8.11518 -11.27084,0 -19.46961,7.7604 -19.73602,18.68078 -0.19591,8.03028 2.58939,12.19127 15.71033,23.4699 6.34238,5.45185 11.53161,10.27733 11.53161,10.72331 0,1.36047 -28.96813,30.67097 -33.09576,33.48694 -7.5697,5.16413 -14.4063,7.04419 -24.50424,6.73853 -23.55561,-0.7129 -29.37126,0.31056 -38.23013,6.72787 -2.12963,1.54272 -15.19314,15.13661 -29.03001,30.20881 -13.83687,15.0721 -25.49874,27.4038 -25.91525,27.4038 -0.41652,0 -1.97845,-1.0146 -3.47095,-2.2548 l -2.71366,-2.2548 -13.92,16.1392 -13.919999,16.1391 -33.896655,0.035 c -20.616408,0.022 -33.68088,-0.3135 -33.345909,-0.8555 z M 890.92551,1064.716 c -7.54912,-8.712 -13.92376,-15.84 -14.16586,-15.84 -0.24211,0 -1.5386,0.864 -2.88109,1.92 -1.34248,1.056 -2.77325,1.92 -3.17948,1.92 -0.40623,0 -12.08305,-12.3607 -25.94847,-27.4683 -13.86543,-15.1077 -26.91224,-28.70164 -28.9929,-30.20884 -8.35893,-6.0552 -20.38984,-8.56858 -32.22536,-6.7322 -11.9659,1.85655 -24.78666,-1.48752 -33.29197,-8.68368 -5.2538,-4.44518 -30.22377,-30.47539 -30.22377,-31.50716 0,-0.45931 5.1928,-5.30017 11.53955,-10.75745 13.31464,-11.44865 15.93268,-15.41267 15.63172,-23.66828 -0.26817,-7.35646 -3.66714,-12.73264 -10.06583,-15.92125 -9.23346,-4.60122 -15.92543,-3.17739 -26.2556,5.58633 -8.43723,7.15782 -15.45169,8.52443 -23.5734,4.59278 -7.13707,-3.45499 -10.62106,-11.7456 -8.55503,-20.35778 0.88941,-3.70747 2.18453,-5.70799 6.03215,-9.31762 11.7004,-10.97666 13.14973,-13.4164 13.16109,-22.15476 0.0105,-8.01608 -5.86188,-15.18412 -14.30099,-17.45653 -6.98593,-1.88111 -13.51441,0.18944 -21.21366,6.72804 -6.36901,5.4089 -7.9531,6.27058 -13.09188,7.12137 -11.22042,1.8577 -20.50812,-6.08072 -20.50812,-17.52877 0,-6.1751 2.9494,-11.48739 9.16409,-16.50586 12.47131,-10.07081 14.37798,-23.04063 4.7485,-32.30101 -4.34436,-4.17785 -9.03162,-5.72058 -15.81862,-5.20642 -4.9561,0.37546 -8.32769,2.47043 -20.19343,12.54743 -5.90637,5.016 -11.04106,9.12 -11.4104,9.12 -0.36934,0 -4.99177,-4.968 -10.27207,-11.04 -14.81799,-17.03973 -36.67738,-33.71816 -55.37839,-42.25297 -4.0336,-1.84087 -7.32484,-3.56303 -7.31386,-3.82703 0.0109,-0.264 3.19265,-2.80373 7.07036,-5.64385 11.56294,-8.46891 21.23233,-19.00416 78.6657,-85.70992 30.15846,-35.02743 55.2352,-63.68623 55.72609,-63.68623 0.4909,0 1.61386,3.024 2.49546,6.72 0.88161,3.696 2.78767,11.688 4.23571,17.76 6.55016,27.46675 19.15704,51.86027 38.36538,74.23468 4.00152,4.66107 7.27548,8.83602 7.27548,9.27766 0,0.44165 -5.12488,5.21766 -11.38863,10.61334 -6.26375,5.39569 -12.14948,11.09835 -13.0794,12.67257 -0.92992,1.57423 -1.90533,5.53532 -2.16758,8.80243 -0.56505,7.03932 1.65371,12.42234 6.70675,16.27151 8.35177,6.36201 18.35805,5.38996 27.93006,-2.71321 7.09685,-6.00785 8.54858,-6.81555 13.8189,-7.68852 11.75069,-1.94635 21.5379,7.66788 20.10679,19.75141 -0.71152,6.00758 -2.49709,8.84574 -9.28689,14.76144 -6.47243,5.63919 -9.39758,10.27191 -10.20492,16.16211 -1.66564,12.15219 10.07298,23.20973 22.20492,20.91657 5.02664,-0.95012 7.50424,-2.32407 14.15149,-7.84765 6.63874,-5.51653 10.90213,-7.08124 17.24686,-6.3298 9.27537,1.09853 14.94847,7.25986 15.35835,16.68009 0.28508,6.55168 -2.77252,12.1806 -9.7967,18.03537 -7.10312,5.92057 -10.0314,11.3926 -9.86646,18.43728 0.24187,10.33054 7.1431,17.41109 17.80424,18.26686 7.8787,0.63243 10.4768,-0.72138 24.22222,-12.62167 5.808,-5.02834 10.83152,-9.15596 11.16339,-9.17246 1.61765,-0.0805 25.35814,30.76237 28.42592,36.92999 3.20738,6.44826 4.39058,13.45028 3.79292,22.44598 -0.30234,4.55071 -1.20407,10.00202 -2.00383,12.11402 -1.91979,5.06969 -1.9342,17.543 -0.0278,24.10063 2.01515,6.93186 4.15234,9.92077 29.10172,40.69937 11.77002,14.52 21.60981,26.90436 21.8662,27.52076 0.25639,0.6165 -1.14587,2.5982 -3.11615,4.4038 l -3.58231,3.283 26.21837,30.1562 c 14.42011,16.586 27.31246,31.3442 28.64965,32.7962 l 2.4312,2.64 h -34.10234 -34.10233 l -13.72566,-15.84 z M 277.11368,495.48069 c -27.38061,-31.87113 -49.8297,-58.31136 -49.88687,-58.75607 -0.11005,-0.85608 180.64411,-156.80858 181.74638,-156.80858 0.35465,0 17.62903,19.71907 38.38751,43.82016 32.82124,38.10624 37.60078,44.04741 36.65433,45.56293 -0.59861,0.95853 -33.31609,39.17487 -72.70551,84.92521 -39.38943,45.75035 -74.21749,86.69902 -77.39572,90.99707 -3.17822,4.29804 -6.05727,7.90286 -6.39788,8.0107 -0.34062,0.10785 -23.02162,-25.88029 -50.40224,-57.75142 z"
         id="path141" />
      <path
         style="fill:#c41919;stroke-width:0.96"
         d="m 686.84871,348.56735 c -16.86966,-14.51378 -30.6721,-26.90204 -30.6721,-27.52947 0,-1.44497 131.18326,-154.25028 132.48,-154.31578 1.39365,-0.0704 62.4,52.66389 62.4,53.93896 0,1.42571 -131.23122,154.14693 -132.5279,154.23023 -0.55435,0.0356 -14.81035,-11.81016 -31.68,-26.32394 z m 141.70327,-165.2921 c -16.9555,-14.60844 -30.67812,-27.01094 -30.49473,-27.56113 0.60479,-1.81437 31.85826,-37.94713 32.83936,-37.96625 1.35065,-0.0263 62.4,52.74235 62.4,53.93612 0,1.45026 -31.49234,38.02856 -32.79823,38.09509 -0.61502,0.0313 -14.99091,-11.8954 -31.9464,-26.50383 z m 42.66463,-47.96709 c -16.896,-14.54245 -30.72,-27.0292 -30.72,-27.74834 0,-0.71915 5.76992,-8.022952 12.82206,-16.230683 12.78581,-14.880963 12.83194,-14.921749 16.32,-14.428639 l 3.49794,0.49451 19.68,-30.873178 c 10.824,-16.980248 20.544,-31.428606 21.6,-32.107464 1.077,-0.692361 14.91433,-2.734741 31.51586,-4.651723 26.76545,-3.0906077 29.85751,-3.2821238 32.33201,-2.0025494 1.5048,0.7781885 2.96419,2.1756259 3.24297,3.1054174 0.76599,2.554577 2.74368,59.666468 2.1481,62.031708 -0.28512,1.132351 -13.07155,13.07482 -28.41416,26.538821 l -27.89569,24.48 0.51251,3.84 c 0.5023,3.7635 0.28179,4.10774 -11.06869,17.28 -6.36967,7.392 -12.31735,14.17641 -13.21706,15.07645 -1.54127,1.54185 -3.41204,0.10771 -32.35585,-24.80433 z"
         id="path139" />
      <path
         style="fill:#000000;stroke-width:0.96"
         d="m 211.21663,298.35705 c -36.168,-42.08279 -65.76,-77.04985 -65.76,-77.70457 0,-1.52385 61.10764,-54.12376 62.39537,-53.70835 1.46673,0.47316 133.0459,153.53004 132.74608,154.41426 -0.43939,1.29581 -61.63455,53.59539 -62.66145,53.55273 -0.528,-0.022 -30.552,-34.47127 -66.72,-76.55407 z M 119.16773,191.4188 c -8.65089,-10.08126 -15.77889,-18.87758 -15.84,-19.54737 -0.12122,-1.32876 60.72409,-54.188 62.2889,-54.11336 1.2546,0.0598 32.64,36.88701 32.64,38.2993 0,1.32622 -60.84475,53.79616 -62.31156,53.73485 -0.57664,-0.0241 -8.12644,-8.29215 -16.77734,-18.37342 z M 82.901037,148.63408 c -16.348539,-18.8949 -15.715684,-17.95132 -14.395034,-21.46273 1.012764,-2.69278 0.88686,-3.13549 -1.428818,-5.02415 C 52.67112,110.39767 13.271726,74.553561 12.830499,72.795576 c -0.876626,-3.492759 1.518182,-60.71879 2.627735,-62.792008 2.010387,-3.756444 4.512472,-3.7784424 34.722835,-0.3052853 15.96956,1.8359523 29.945769,3.7326033 31.058245,4.2147783 1.160638,0.503051 10.570877,14.213699 22.079996,32.170395 l 20.05732,31.293711 3.03453,-0.518031 c 2.2996,-0.392569 3.6082,0.01175 5.40319,1.669436 4.46626,4.124628 24.84905,28.567228 24.52557,29.410548 -0.17781,0.46356 -11.77129,10.68311 -25.76329,22.71011 -13.992,12.027 -27.87364,23.96329 -30.848089,26.52508 l -5.408091,4.6578 z"
         id="path137" />
    </g>
  </g>
</svg>
