<?xml version="1.0" encoding="UTF-8" standalone="no"?>
<!-- Created with Inkscape (http://www.inkscape.org/) -->

<svg
   version="1.1"
   id="svg9"
   width="2666.8799"
   height="2666.8799"
   viewBox="0 0 2666.8799 2666.8799"
   sodipodi:docname="VectorCords.png.svg"
   inkscape:version="1.1.2 (b8e25be833, 2022-02-05)"
   xmlns:inkscape="http://www.inkscape.org/namespaces/inkscape"
   xmlns:sodipodi="http://sodipodi.sourceforge.net/DTD/sodipodi-0.dtd"
   xmlns="http://www.w3.org/2000/svg"
   xmlns:svg="http://www.w3.org/2000/svg">
  <defs
     id="defs13" />
  <sodipodi:namedview
     id="namedview11"
     pagecolor="#ffffff"
     bordercolor="#666666"
     borderopacity="1.0"
     inkscape:pageshadow="2"
     inkscape:pageopacity="0.0"
     inkscape:pagecheckerboard="0"
     showgrid="false"
     inkscape:zoom="0.21423623"
     inkscape:cx="515.78578"
     inkscape:cy="1479.675"
     inkscape:window-width="1920"
     inkscape:window-height="1017"
     inkscape:window-x="-8"
     inkscape:window-y="-8"
     inkscape:window-maximized="1"
     inkscape:current-layer="g15" />
  <g
     inkscape:groupmode="layer"
     inkscape:label="Image"
     id="g15">
    <g
       id="g261"
       transform="translate(42.84796,52.202964)">
      <path
         style="fill:#ffffff;stroke-width:0.96"
         d="M -6.6011877,1336.7405 V 3.3005943 H 1326.8388 2660.2787 V 1336.7405 2670.1805 H 1326.8388 -6.6011877 Z M 1736.7587,2015.1853 c 41.3331,-9.7818 73.7944,-33.5327 93.9025,-68.7058 24.4598,-42.7847 24.8646,-97.193 1.0391,-139.6442 -7.5976,-13.5369 -12.2953,-19.5023 -43.856,-55.6895 l -29.3038,-33.5994 3.5814,-3.2821 c 1.9699,-1.8052 3.3718,-3.7866 3.1153,-4.403 -0.2564,-0.6164 -10.0962,-13.0008 -21.8662,-27.5208 -24.9494,-30.7785 -27.0866,-33.7675 -29.1017,-40.6994 -1.9064,-6.5575 -1.892,-19.0309 0.028,-24.1006 0.7998,-2.112 1.7016,-7.5632 2.0039,-12.114 0.5977,-8.9957 -0.5855,-15.9977 -3.7929,-22.446 -3.0678,-6.1676 -26.8083,-37.0104 -28.426,-36.9299 -0.3319,0.016 -5.3554,4.144 -11.1634,9.1724 -13.7454,11.9003 -16.3435,13.2541 -24.2222,12.6217 -10.6611,-0.8557 -17.5623,-7.9363 -17.8042,-18.2669 -0.165,-7.0447 2.7633,-12.5167 9.8665,-18.4373 7.0241,-5.8547 10.0817,-11.4837 9.7967,-18.0353 -0.41,-9.4203 -6.083,-15.5816 -15.3584,-16.6801 -6.3447,-0.7515 -10.6081,0.8132 -17.2469,6.3298 -6.6472,5.5235 -9.1248,6.8975 -14.1514,7.8476 -12.132,2.2932 -23.8706,-8.7643 -22.2049,-20.9166 0.8073,-5.8902 3.7324,-10.5228 10.2049,-16.1621 6.7897,-5.9157 8.5753,-8.7538 9.2868,-14.7614 1.4312,-12.0835 -8.356,-21.6977 -20.1067,-19.7514 -5.2704,0.873 -6.7221,1.6806 -13.8189,7.6885 -9.5721,8.1032 -19.5784,9.0753 -27.9301,2.7133 -5.053,-3.8493 -7.2718,-9.2323 -6.7067,-16.2716 0.2621,-3.2671 1.2376,-7.2282 2.1676,-8.8024 0.9298,-1.5742 6.8156,-7.2769 13.0793,-12.6726 6.2638,-5.3956 11.3887,-10.1716 11.3887,-10.6133 0,-0.4416 -3.274,-4.6166 -7.2755,-9.2777 -19.2084,-22.3744 -31.8153,-46.7679 -38.3654,-74.2347 -1.448,-6.072 -3.3541,-14.064 -4.2358,-17.76 -0.8815,-3.696 -2.008,-6.7159 -2.5031,-6.711 -0.4951,0.01 -25.5719,28.6637 -55.7261,63.6863 -57.4257,66.6968 -67.0952,77.2321 -78.658,85.7009 -3.8776,2.8401 -7.0594,5.3798 -7.0703,5.6438 -0.011,0.264 3.2802,1.9862 7.3138,3.8271 18.701,8.5348 40.5604,25.2132 55.3784,42.2529 5.2803,6.072 9.9028,11.04 10.2721,11.04 0.3693,0 5.504,-4.104 11.4104,-9.12 11.8658,-10.077 15.2373,-12.1719 20.1935,-12.5474 6.7869,-0.5141 11.4742,1.0286 15.8186,5.2064 9.6294,9.2604 7.7228,22.2303 -4.7486,32.301 -6.2146,5.0185 -9.164,10.3308 -9.164,16.5059 0,11.4481 9.2877,19.3864 20.5081,17.5287 5.1387,-0.8507 6.7228,-1.7124 13.0919,-7.1213 7.6992,-6.5386 14.2277,-8.6091 21.2137,-6.728 8.439,2.2724 14.3113,9.4404 14.3009,17.4565 -0.011,8.7383 -1.4607,11.1781 -13.161,22.1547 -3.8477,3.6097 -5.1429,5.6102 -6.0322,9.3177 -2.066,8.6121 1.4179,16.9028 8.555,20.3577 8.1217,3.9317 15.1362,2.5651 23.5734,-4.5927 10.3302,-8.7637 17.0222,-10.1876 26.2556,-5.5863 6.3987,3.1885 9.7977,8.5647 10.0658,15.9212 0.301,8.2556 -2.317,12.2196 -15.6317,23.6683 -6.3467,5.4572 -11.5395,10.2981 -11.5395,10.7574 0,1.0318 24.9699,27.062 30.2237,31.5072 8.5053,7.1961 21.3261,10.5402 33.292,8.6837 11.8355,-1.8364 23.8664,0.6769 32.2253,6.7321 2.0807,1.5072 15.1275,15.1012 28.9929,30.2088 13.8655,15.1077 25.5422,27.4684 25.9485,27.4684 0.4063,0 1.9143,-0.9247 3.3512,-2.055 l 2.6126,-2.0551 2.1901,2.2951 c 5.4263,5.6865 54.7137,62.8418 58.4651,67.7981 7.6847,10.153 13.5129,23.2378 16.4962,37.0359 2.1987,10.1692 1.5401,29.6506 -1.3691,40.501 -7.6975,28.71 -30.4295,53.3738 -58.1886,63.134 -15.2211,5.3518 10.5106,5.026 -396.9599,5.026 -359.2373,0 -377.13564,-0.081 -384.00002,-1.7243 -24.81952,-5.9442 -43.61948,-18.768 -56.98262,-38.869 -10.40543,-15.652 -15.16527,-31.2204 -15.32555,-50.1267 -0.14866,-17.5361 3.31405,-30.7235 12.12439,-46.1743 4.91793,-8.6247 6.39478,-10.439 38.10378,-46.8092 l 28.32,-32.4829 2.71363,2.2532 c 1.49251,1.2393 3.05443,2.2532 3.47097,2.2532 0.41655,0 12.07834,-12.3317 25.9153,-27.4038 13.83682,-15.0722 26.90032,-28.6661 29.03002,-30.2088 8.8588,-6.4174 14.6745,-7.4408 38.2301,-6.7279 10.0979,0.3057 16.9346,-1.5744 24.5043,-6.7385 4.1276,-2.816 33.0957,-32.1265 33.0957,-33.487 0,-0.446 -5.1892,-5.2714 -11.5316,-10.7232 -13.1209,-11.2787 -15.9063,-15.4397 -15.7103,-23.47 0.2664,-10.9203 8.4651,-18.6808 19.7359,-18.6808 5.3273,0 9.5545,2.0544 16.6988,8.1154 3.4436,2.9214 7.2119,5.5021 8.3741,5.7349 6.5463,1.3113 8.671,1.3124 12.3721,0.01 7.7081,-2.7195 11.6095,-8.2969 11.7076,-16.7368 0.08,-6.8256 -2.5388,-11.4318 -10.027,-17.6404 -6.768,-5.6117 -9.5396,-10.766 -9.5396,-17.741 0,-14.5759 14.963,-23.3862 28.32,-16.6749 1.584,0.7959 5.3903,3.5366 8.4585,6.0905 3.0682,2.5538 7.3575,5.1223 9.5318,5.7078 12.7157,3.424 24.0455,-6.2859 22.5055,-19.2877 -0.7496,-6.3298 -2.5834,-9.2279 -9.407,-14.8665 -9.5495,-7.8911 -12.6322,-17.1679 -8.6317,-25.9757 4.4851,-9.8749 17.2214,-14.1227 26.9829,-8.9993 1.848,0.97 8.1104,5.8909 13.9166,10.9354 5.8061,5.0445 10.7741,9.148 11.04,9.119 0.2658,-0.029 3.7234,-3.9518 7.6834,-8.7172 12.3144,-14.819 29.8236,-29.4713 46.6514,-39.0395 10.2889,-5.8503 16.5149,-8.6989 30.0661,-13.7559 18.5271,-6.914 34.3757,-17.08 47.2388,-30.3013 3.4959,-3.5933 57.2305,-65.7173 119.41,-138.0533 62.1796,-72.336 114.111,-132.6609 115.4032,-134.0554 l 2.3494,-2.5356 -91.0132,-78.3444 c -50.0573,-43.0926 -91.3045,-78.34764 -91.6603,-78.34764 -0.9116,0 -234.5155,271.52524 -238.894,277.67434 -8.5316,11.9809 -15.6668,27.8361 -19.1196,42.4856 -5.3072,22.5171 -6.4728,26.6507 -10.4224,36.96 -7.4685,19.4945 -17.721,36.3317 -32.3054,53.0542 -3.4892,4.0007 -6.344,7.7189 -6.344,8.2629 0,0.5438 4.86,5.1839 10.8,10.3113 13.3252,11.5024 15.211,14.1112 15.8369,21.9088 0.3833,4.7753 0.083,6.6941 -1.5518,9.8977 -3.715,7.2817 -12.4514,11.6344 -20.6332,10.2797 -5.2089,-0.8623 -6.7951,-1.7252 -13.0919,-7.1215 -6.3824,-5.4698 -7.9656,-6.3389 -13.0919,-7.1877 -11.1271,-1.8422 -20.5081,6.1744 -20.5081,17.5254 0,6.2364 2.9621,11.5083 9.6,17.0865 6.2394,5.2432 9.3268,9.905 10.1367,15.3063 1.8782,12.5244 -9.8155,23.9565 -22.1367,21.6419 -5.0859,-0.9555 -8.5641,-2.879 -14.6256,-8.0881 -2.7642,-2.3754 -6.6036,-4.8398 -8.5322,-5.4762 -7.6121,-2.5123 -19.2381,1.5261 -21.6437,7.518 -2.035,5.0689 -2.5949,10.2465 -1.5605,14.4325 1.0191,4.1236 2.7673,6.3033 11.4669,14.296 5.6957,5.2328 7.8943,9.9029 7.7256,16.4097 -0.2667,10.2861 -7.2039,17.322 -17.9277,18.1828 -7.6975,0.6179 -10.4119,-0.8065 -24.3441,-12.7738 l -10.88135,-9.3468 -2.70038,2.7803 c -6.07863,6.2582 -23.53325,30.077 -26.22931,35.7925 -4.02384,8.5309 -4.72032,21.2461 -1.74461,31.851 3.49632,12.4599 2.22297,25.3578 -3.37258,34.1616 -0.95606,1.5042 -11.52276,14.8563 -23.48147,29.6712 -11.95872,14.8149 -22.32317,27.865 -23.03211,29.0002 -1.17846,1.8869 -0.97976,2.335 2.31704,5.2238 l 3.60603,3.1598 -30.51999,35.0853 c -16.78599,19.2969 -32.30184,37.6569 -34.47965,40.8 -10.71195,15.4599 -18.53543,33.3084 -23.00549,52.4848 -2.24891,9.6477 -2.5276,12.8211 -2.55303,29.0699 -0.0253,16.2125 0.24805,19.4672 2.4597,29.28 5.40303,23.9727 12.0475,38.7154 25.74366,57.12 7.03972,9.4599 20.13367,22.7032 29.15482,29.4874 17.79019,13.3789 44.67266,23.8454 68.40393,26.6327 3.56189,0.4183 177.54809,0.6923 386.63609,0.609 l 380.1599,-0.1516 z M 1176.896,1247.806 c 3.1782,-4.2982 38.0063,-45.2468 77.3957,-90.9972 39.3894,-45.7503 72.1069,-83.9666 72.7055,-84.9251 0.9464,-1.5156 -3.8331,-7.4567 -36.6544,-45.563 -20.7584,-24.1011 -38.0328,-43.82014 -38.3875,-43.82014 -1.1023,0 -181.8564,155.95244 -181.7463,156.80864 0.1584,1.2321 99.58,116.7319 100.2891,116.5074 0.3406,-0.1078 3.2196,-3.7126 6.3979,-8.0106 z m -24.2972,-196.6813 c 16.896,-14.5258 30.8377,-26.7577 30.9814,-27.1818 0.2999,-0.8843 -131.2793,-153.94109 -132.746,-154.41425 -1.2878,-0.41541 -62.39543,52.1845 -62.39543,53.70835 0,1.48276 131.15943,154.2038 132.48003,154.2586 0.528,0.022 14.784,-11.8449 31.68,-26.3709 z m 475.68,-50.2599 c 36.1679,-42.10052 65.7599,-77.02915 65.7599,-77.61922 0,-1.27507 -61.0063,-54.00935 -62.3999,-53.93895 -1.2968,0.0655 -132.48,152.87087 -132.48,154.31567 0,1.3567 60.8901,53.9474 62.352,53.8536 0.5544,-0.036 30.6,-34.5107 66.768,-76.6111 z M 1010.6072,886.07204 c 16.8474,-14.49169 30.6316,-26.83526 30.6316,-27.43015 0,-1.41228 -31.3854,-38.23945 -32.64,-38.29929 -1.5648,-0.0747 -62.41014,52.7846 -62.28892,54.11335 0.15086,1.65371 31.29837,37.86564 32.61731,37.92079 0.57667,0.0241 14.83267,-11.81301 31.68001,-26.3047 z m 709.8315,7.70468 c 8.712,-10.19146 15.84,-18.97016 15.84,-19.50821 0,-1.19377 -61.0493,-53.96243 -62.4,-53.93612 -0.9811,0.0191 -32.2345,36.15188 -32.8393,37.96625 -0.3912,1.17369 60.7914,54.14899 62.4411,54.06496 0.615,-0.0313 8.2462,-8.39543 16.9582,-18.58688 z M 973.55878,833.23375 c 13.992,-12.027 25.58543,-22.24655 25.76332,-22.7101 0.32343,-0.84332 -20.05929,-25.28592 -24.5256,-29.41055 -1.795,-1.65769 -3.10358,-2.062 -5.40316,-1.66944 l -3.03456,0.51803 -20.05732,-31.29371 c -11.50912,-17.95669 -20.91936,-31.66734 -22.08,-32.17039 -1.11248,-0.48217 -15.08869,-2.37883 -31.05825,-4.21478 -30.21036,-3.47315 -32.71245,-3.45116 -34.72283,0.30529 -1.10955,2.07322 -3.50436,59.29925 -2.62773,62.792 0.44122,1.75799 39.84062,37.6021 54.24668,49.35163 2.31568,1.88865 2.44159,2.33136 1.42882,5.02415 -1.32065,3.51141 -1.95351,2.56782 14.39503,21.46272 l 11.41942,13.19804 5.40808,-4.65781 c 2.97446,-2.56179 16.8561,-14.49807 30.8481,-26.52508 z m 786.21292,14.38681 c 11.3504,-13.17225 11.5709,-13.5165 11.0687,-17.28 l -0.5126,-3.84 27.8957,-24.48 c 15.3426,-13.464 28.1291,-25.40646 28.4142,-26.53882 0.5956,-2.36524 -1.3821,-59.47712 -2.1481,-62.0317 -0.2788,-0.92979 -1.7382,-2.32723 -3.243,-3.10542 -2.4745,-1.27958 -5.5665,-1.08806 -32.332,2.00255 -16.6015,1.91698 -30.4388,3.95937 -31.5159,4.65173 -1.056,0.67885 -10.776,15.12721 -21.6,32.10746 l -19.68,30.87317 -3.4979,-0.4945 c -3.4881,-0.49312 -3.5341,-0.45233 -16.32,14.42863 -7.0522,8.20773 -12.8221,15.51154 -12.8221,16.23068 0,0.71915 13.824,13.2059 30.72,27.74834 28.9439,24.91204 30.8146,26.34618 32.3559,24.80434 0.8997,-0.90005 6.8474,-7.68446 13.2171,-15.07646 z"
         id="path269" />
      <path
         style="fill:#fefefe;stroke-width:0.96"
         d="m 958.92271,2017.3406 c -23.73127,-2.7873 -50.61374,-13.2538 -68.40393,-26.6327 -9.02115,-6.7842 -22.1151,-20.0275 -29.15482,-29.4874 -13.69616,-18.4046 -20.34063,-33.1473 -25.74366,-57.12 -2.21165,-9.8128 -2.48506,-13.0675 -2.4597,-29.28 0.0254,-16.2488 0.30412,-19.4222 2.55303,-29.0699 4.47006,-19.1764 12.29354,-37.0249 23.00549,-52.4848 2.17781,-3.1431 17.69366,-21.5031 34.47965,-40.8 l 30.51999,-35.0853 -3.60603,-3.1598 c -3.2968,-2.8888 -3.4955,-3.3369 -2.31704,-5.2238 0.70894,-1.1352 11.07339,-14.1853 23.03211,-29.0002 11.95871,-14.8149 22.52541,-28.167 23.48147,-29.6712 5.59555,-8.8038 6.8689,-21.7017 3.37258,-34.1616 -2.97571,-10.6049 -2.27923,-23.3201 1.74461,-31.851 2.69606,-5.7155 20.15068,-29.5343 26.22931,-35.7925 l 2.70038,-2.7803 10.88135,9.3468 c 13.9322,11.9673 16.6466,13.3917 24.3441,12.7738 10.7238,-0.8608 17.661,-7.8967 17.9277,-18.1828 0.1687,-6.5068 -2.0299,-11.1769 -7.7256,-16.4097 -8.6996,-7.9927 -10.4478,-10.1724 -11.4669,-14.296 -1.0344,-4.186 -0.4745,-9.3636 1.5605,-14.4325 2.4056,-5.9919 14.0316,-10.0303 21.6437,-7.518 1.9286,0.6364 5.768,3.1008 8.5322,5.4762 6.0615,5.2091 9.5397,7.1326 14.6256,8.0881 12.3212,2.3146 24.0149,-9.1175 22.1367,-21.6419 -0.8099,-5.4013 -3.8973,-10.0631 -10.1367,-15.3063 -6.6379,-5.5782 -9.6,-10.8501 -9.6,-17.0865 0,-11.351 9.381,-19.3676 20.5081,-17.5254 5.1263,0.8488 6.7095,1.7179 13.0919,7.1877 6.2968,5.3963 7.883,6.2592 13.0919,7.1215 8.1818,1.3547 16.9182,-2.998 20.6332,-10.2797 1.6343,-3.2036 1.9351,-5.1224 1.5518,-9.8977 -0.6259,-7.7976 -2.5117,-10.4064 -15.8369,-21.9088 -5.94,-5.1274 -10.8,-9.7675 -10.8,-10.3113 0,-0.544 2.8548,-4.2622 6.344,-8.2629 14.5844,-16.7225 24.8369,-33.5597 32.3054,-53.0542 3.9496,-10.3093 5.1152,-14.4429 10.4224,-36.96 3.4528,-14.6495 10.588,-30.5047 19.1196,-42.4856 4.3785,-6.1491 237.9824,-277.67434 238.894,-277.67434 0.3558,0 41.603,35.25504 91.6603,78.34454 l 91.0132,78.3444 -2.3494,2.5356 c -1.2922,1.3945 -53.2236,61.7194 -115.4032,134.0554 -62.1795,72.336 -115.9141,134.46 -119.41,138.0533 -12.8631,13.2213 -28.7117,23.3873 -47.2388,30.3014 -13.5512,5.057 -19.7772,7.9056 -30.0661,13.7558 -16.8278,9.5682 -34.337,24.2205 -46.6514,39.0396 -3.96,4.7653 -7.4176,8.688 -7.6834,8.7171 -0.2659,0.029 -5.2339,-4.0745 -11.04,-9.119 -5.8062,-5.0445 -12.0686,-9.9654 -13.9166,-10.9354 -9.7615,-5.1234 -22.4978,-0.8756 -26.9829,8.9994 -4.0005,8.8078 -0.9178,18.0845 8.6317,25.9756 6.8236,5.6386 8.6574,8.5367 9.407,14.8665 1.54,13.0019 -9.7898,22.7117 -22.5055,19.2878 -2.1743,-0.5856 -6.4636,-3.154 -9.5318,-5.7079 -3.0682,-2.5539 -6.8745,-5.2946 -8.4585,-6.0905 -13.357,-6.7113 -28.32,2.099 -28.32,16.675 0,6.9749 2.7716,12.1293 9.5396,17.741 7.4882,6.2086 10.1063,10.8147 10.027,17.6403 -0.098,8.44 -3.9995,14.0173 -11.7076,16.7369 -3.7011,1.3058 -5.8258,1.3047 -12.3721,-0.01 -1.1622,-0.2328 -4.9305,-2.8136 -8.3741,-5.735 -7.1443,-6.0609 -11.3715,-8.1153 -16.6988,-8.1153 -11.2708,0 -19.4695,7.7604 -19.7359,18.6807 -0.196,8.0303 2.5894,12.1913 15.7103,23.47 6.3424,5.4518 11.5316,10.2773 11.5316,10.7233 0,1.3604 -28.9681,30.6709 -33.0957,33.4869 -7.5697,5.1641 -14.4064,7.0442 -24.5043,6.7385 -23.5556,-0.7129 -29.3713,0.3106 -38.2301,6.7279 -2.1297,1.5427 -15.1932,15.1366 -29.03002,30.2088 -13.83696,15.0721 -25.49875,27.4039 -25.9153,27.4039 -0.41654,0 -1.97846,-1.014 -3.47097,-2.2533 l -2.71363,-2.2532 -28.32,32.483 c -31.709,36.3701 -33.18585,38.1844 -38.10378,46.8091 -8.81034,15.4508 -12.27305,28.6382 -12.12439,46.1744 0.16028,18.9062 4.92012,34.4746 15.32555,50.1266 13.36314,20.101 32.1631,32.9249 56.98262,38.869 6.86438,1.644 24.76272,1.7243 384.00002,1.7243 407.4705,0 381.7388,0.3259 396.9599,-5.0259 27.7591,-9.7603 50.4911,-34.4241 58.1886,-63.134 2.9092,-10.8504 3.5678,-30.3319 1.3691,-40.5011 -2.9833,-13.7981 -8.8115,-26.8829 -16.4962,-37.0358 -3.7514,-4.9563 -53.0388,-62.1117 -58.4651,-67.7982 l -2.1901,-2.2951 -2.6126,2.0551 c -1.4369,1.1303 -2.9449,2.0551 -3.3512,2.0551 -0.4063,0 -12.083,-12.3608 -25.9485,-27.4684 -13.8654,-15.1076 -26.9122,-28.7016 -28.9929,-30.2088 -8.3589,-6.0552 -20.3898,-8.5686 -32.2253,-6.7322 -11.9659,1.8565 -24.7867,-1.4875 -33.292,-8.6837 -5.2538,-4.4452 -30.2237,-30.4754 -30.2237,-31.5072 0,-0.4593 5.1928,-5.3002 11.5395,-10.7574 13.3147,-11.4486 15.9327,-15.4127 15.6317,-23.6683 -0.2681,-7.3565 -3.6671,-12.7327 -10.0658,-15.9212 -9.2334,-4.6013 -15.9254,-3.1774 -26.2556,5.5863 -8.4372,7.1578 -15.4517,8.5244 -23.5734,4.5928 -7.1371,-3.455 -10.621,-11.7456 -8.555,-20.3578 0.8893,-3.7075 2.1845,-5.708 6.0322,-9.3177 11.7003,-10.9766 13.1497,-13.4163 13.161,-22.1546 0.011,-8.0161 -5.8619,-15.1842 -14.3009,-17.4566 -6.986,-1.8811 -13.5145,0.1894 -21.2137,6.728 -6.3691,5.4089 -7.9532,6.2706 -13.0919,7.1214 -11.2204,1.8577 -20.5081,-6.0807 -20.5081,-17.5288 0,-6.1751 2.9494,-11.4873 9.164,-16.5058 12.4714,-10.0708 14.378,-23.0407 4.7486,-32.3011 -4.3444,-4.1778 -9.0317,-5.7205 -15.8186,-5.2063 -4.9562,0.3754 -8.3277,2.4703 -20.1935,12.5474 -5.9064,5.016 -11.0411,9.12 -11.4104,9.12 -0.3693,0 -4.9918,-4.968 -10.2721,-11.04 -14.818,-17.0397 -36.6774,-33.7182 -55.3784,-42.253 -4.0336,-1.8409 -7.3248,-3.563 -7.3138,-3.827 0.011,-0.264 3.1927,-2.8038 7.0703,-5.6439 11.5628,-8.4688 21.2323,-19.004 78.658,-85.7009 30.1542,-35.0225 55.231,-63.6813 55.7261,-63.6863 0.4951,-0.01 1.6216,3.0151 2.5031,6.7111 0.8817,3.696 2.7878,11.688 4.2358,17.76 6.5501,27.4667 19.157,51.8602 38.3654,74.2347 4.0015,4.661 7.2755,8.836 7.2755,9.2776 0,0.4417 -5.1249,5.2177 -11.3887,10.6134 -6.2637,5.3956 -12.1495,11.0983 -13.0793,12.6725 -0.93,1.5742 -1.9055,5.5353 -2.1676,8.8025 -0.5651,7.0393 1.6537,12.4223 6.7067,16.2715 8.3517,6.362 18.358,5.3899 27.9301,-2.7133 7.0968,-6.0078 8.5485,-6.8155 13.8189,-7.6885 11.7507,-1.9463 21.5379,7.6679 20.1067,19.7514 -0.7115,6.0076 -2.4971,8.8458 -9.2868,14.7615 -6.4725,5.6392 -9.3976,10.2719 -10.2049,16.162 -1.6657,12.1523 10.0729,23.2099 22.2049,20.9166 5.0266,-0.9501 7.5042,-2.324 14.1514,-7.8476 6.6388,-5.5165 10.9022,-7.0812 17.2469,-6.3298 9.2754,1.0986 14.9484,7.2599 15.3584,16.6801 0.285,6.5517 -2.7726,12.1806 -9.7967,18.0354 -7.1032,5.9206 -10.0315,11.3926 -9.8665,18.4372 0.2419,10.3306 7.1431,17.4112 17.8042,18.2669 7.8787,0.6325 10.4768,-0.7214 24.2222,-12.6217 5.808,-5.0284 10.8315,-9.1559 11.1634,-9.1724 1.6177,-0.081 25.3582,30.7623 28.426,36.93 3.2074,6.4482 4.3906,13.4502 3.7929,22.4459 -0.3023,4.5508 -1.2041,10.0021 -2.0039,12.1141 -1.9198,5.0696 -1.9342,17.543 -0.028,24.1006 2.0151,6.9318 4.1523,9.9208 29.1017,40.6994 11.77,14.52 21.6098,26.9043 21.8662,27.5208 0.2565,0.6164 -1.1454,2.5977 -3.1153,4.4029 l -3.5814,3.2821 29.3038,33.5995 c 31.5607,36.1872 36.2584,42.1525 43.856,55.6895 23.8255,42.4512 23.4207,96.8595 -1.0391,139.6442 -20.1081,35.173 -52.5694,58.9239 -93.9025,68.7057 l -11.04,2.6128 -380.1599,0.1515 c -209.088,0.084 -383.0742,-0.1907 -386.63609,-0.609 z m 161.17319,-819.2754 c -27.3807,-31.8711 -49.8298,-58.3114 -49.8869,-58.756 -0.1101,-0.8562 180.644,-156.80864 181.7463,-156.80864 0.3547,0 17.6291,19.71904 38.3875,43.82014 32.8213,38.1063 37.6008,44.0474 36.6544,45.563 -0.5986,0.9585 -33.3161,39.1748 -72.7055,84.9251 -39.3894,45.7504 -74.2175,86.699 -77.3957,90.9972 -3.1783,4.298 -6.0573,7.9028 -6.3979,8.0106 -0.3406,0.1079 -23.0217,-25.8803 -50.4022,-57.7514 z"
         id="path267" />
      <path
         style="fill:#c41919;stroke-width:0.96"
         d="m 1529.8309,1051.1519 c -16.8697,-14.5138 -30.6721,-26.9021 -30.6721,-27.5296 0,-1.4448 131.1832,-154.25017 132.48,-154.31567 1.3936,-0.0704 62.3999,52.66388 62.3999,53.93895 0,1.42571 -131.2312,154.14692 -132.5279,154.23032 -0.5543,0.036 -14.8103,-11.8103 -31.6799,-26.324 z m 141.7032,-165.29213 c -16.9555,-14.60843 -30.6781,-27.01094 -30.4947,-27.56113 0.6048,-1.81437 31.8582,-37.94713 32.8393,-37.96625 1.3507,-0.0263 62.4,52.74235 62.4,53.93612 0,1.45026 -31.4923,38.02857 -32.7982,38.09509 -0.615,0.0313 -14.9909,-11.89539 -31.9464,-26.50383 z m 42.6646,-47.96709 c -16.896,-14.54244 -30.72,-27.02919 -30.72,-27.74834 0,-0.71914 5.7699,-8.02295 12.8221,-16.23068 12.7859,-14.88096 12.8319,-14.92175 16.32,-14.42863 l 3.4979,0.4945 19.68,-30.87317 c 10.824,-16.98025 20.544,-31.42861 21.6,-32.10746 1.0771,-0.69236 14.9144,-2.73475 31.5159,-4.65173 26.7655,-3.09061 29.8575,-3.28213 32.332,-2.00255 1.5048,0.77819 2.9642,2.17563 3.243,3.10542 0.766,2.55458 2.7437,59.66646 2.1481,62.0317 -0.2851,1.13236 -13.0716,13.07482 -28.4142,26.53882 l -27.8957,24.48 0.5126,3.84 c 0.5022,3.7635 0.2817,4.10775 -11.0687,17.28 -6.3697,7.392 -12.3174,14.17641 -13.2171,15.07646 -1.5413,1.54184 -3.412,0.1077 -32.3559,-24.80434 z"
         id="path265" />
      <path
         style="fill:#000000;stroke-width:0.96"
         d="m 1054.1988,1000.9416 c -36.168,-42.08282 -65.76003,-77.04988 -65.76003,-77.7046 0,-1.52385 61.10763,-54.12376 62.39543,-53.70835 1.4667,0.47316 133.0459,153.52995 132.746,154.41425 -0.4393,1.2958 -61.6345,53.5954 -62.6614,53.5527 -0.528,-0.022 -30.552,-34.4713 -66.72,-76.554 z M 962.14985,894.00333 c -8.65085,-10.08127 -15.77887,-18.87759 -15.83997,-19.54738 -0.12122,-1.32875 60.72412,-54.18799 62.28892,-54.11335 1.2546,0.0598 32.64,36.88701 32.64,38.29929 0,1.32622 -60.84473,53.79616 -62.31161,53.73485 -0.57657,-0.0241 -8.1264,-8.29215 -16.77734,-18.37341 z M 925.88318,851.2186 c -16.34854,-18.8949 -15.71568,-17.95131 -14.39503,-21.46272 1.01277,-2.69279 0.88686,-3.1355 -1.42882,-5.02415 -14.40606,-11.74953 -53.80546,-47.59364 -54.24668,-49.35163 -0.87663,-3.49275 1.51818,-60.71878 2.62773,-62.792 2.01038,-3.75645 4.51247,-3.77844 34.72283,-0.30529 15.96956,1.83595 29.94577,3.73261 31.05825,4.21478 1.16064,0.50305 10.57088,14.2137 22.08,32.17039 l 20.05732,31.29371 3.03456,-0.51803 c 2.29958,-0.39256 3.60816,0.0117 5.40316,1.66944 4.46631,4.12463 24.84903,28.56723 24.5256,29.41055 -0.17789,0.46355 -11.77132,10.6831 -25.76332,22.7101 -13.992,12.02701 -27.87364,23.96329 -30.8481,26.52508 l -5.40808,4.65781 z"
         id="path263" />
    </g>
  </g>
</svg>
